<svg width="120" height="48" viewBox="0 0 120 48" fill="none" xmlns="http://www.w3.org/2000/svg">
<g clip-path="url(#clip0_3503_4419)">
<path d="M67.1427 41.8218V28.8404H69.4076L75.3787 36.9293H75.5454V28.8404H78.1436V41.8218H75.8984L69.9077 33.6937H69.741V41.8218H67.1427ZM86.8698 28.8306C87.8405 28.8306 88.6935 28.9776 89.4485 29.262C90.2034 29.5463 90.8408 29.9679 91.3604 30.517C91.8801 31.066 92.2722 31.7426 92.5468 32.5367C92.8213 33.3309 92.9586 34.233 92.9586 35.2526C92.9586 36.2723 92.8213 37.243 92.5566 38.0666C92.2918 38.8902 91.8899 39.5765 91.3702 40.1354C90.8506 40.6943 90.2133 41.1159 89.4583 41.41C88.7033 41.7042 87.8405 41.8512 86.8698 41.8512H81.7616V28.86H86.8698V28.8306ZM84.4775 39.5079H86.4384C87.6444 39.5079 88.5759 39.1451 89.223 38.4294C89.8701 37.7136 90.1936 36.6645 90.1936 35.2821C90.1936 34.6251 90.1054 34.0467 89.9387 33.5368C89.772 33.027 89.5171 32.5858 89.2034 32.2328C88.8769 31.8794 88.4747 31.6046 88.0268 31.4288C87.566 31.2425 87.0365 31.1543 86.4482 31.1543H84.4873V39.5079H84.4775ZM103.352 38.7333H98.7924L97.7923 41.8316H95.0666L99.5768 28.8502H102.773L107.283 41.8316H104.342L103.361 38.7333H103.352ZM99.3709 36.6351H102.773L101.165 31.5465H100.998L99.3709 36.6351ZM57.0145 19.271C57.0145 19.6828 57.0733 20.0455 57.1909 20.3789C57.3086 20.7122 57.4851 20.9868 57.7204 21.2221C57.9557 21.4574 58.2401 21.6339 58.5734 21.7614C58.9166 21.8888 59.299 21.9476 59.7304 21.9476C60.1618 21.9476 60.554 21.8888 60.8971 21.7614C61.2403 21.6339 61.5246 21.4574 61.7501 21.2221C61.9855 20.9868 62.1521 20.7024 62.2796 20.3789C62.3973 20.0455 62.4561 19.6828 62.4561 19.271V11.0448H65.172V19.5455C65.172 20.2612 65.0445 20.9181 64.7896 21.5162C64.5347 22.1045 64.1719 22.6144 63.6915 23.036C63.2209 23.4576 62.6424 23.7811 61.9757 24.0164C61.3089 24.2518 60.554 24.3596 59.7206 24.3596C58.8872 24.3596 58.142 24.2419 57.4753 24.0164C56.7988 23.7811 56.2301 23.4576 55.7595 23.036C55.2888 22.6144 54.9261 22.1045 54.6711 21.5162C54.4162 20.928 54.2887 20.271 54.2887 19.5455V11.0448H57.0047V19.271H57.0145ZM68.7997 24.0262V11.0448H71.0646L77.0357 19.1337H77.2024V11.0448H79.8006V24.0262H77.5554L71.5647 15.8981H71.398V24.0262H68.7997ZM88.5268 11.035C89.4975 11.035 90.3505 11.1821 91.1055 11.4664C91.8604 11.7507 92.4977 12.1723 93.0174 12.7214C93.537 13.2705 93.9292 13.947 94.2038 14.7412C94.4783 15.5354 94.6156 16.4374 94.6156 17.4571C94.6156 18.4768 94.4783 19.4474 94.2136 20.271C93.9488 21.0946 93.5469 21.781 93.0272 22.3398C92.5076 22.8987 91.8703 23.3203 91.1153 23.6144C90.3603 23.9086 89.4975 24.0557 88.5268 24.0557H83.4186V11.0644H88.5268V11.035ZM86.1345 21.7025H88.0954C89.3014 21.7025 90.2329 21.3397 90.88 20.624C91.5271 19.9083 91.8506 18.8592 91.8506 17.4767C91.8506 16.8198 91.7624 16.2413 91.5957 15.7314C91.429 15.2216 91.1741 14.7804 90.8604 14.4274C90.5339 14.074 90.1316 13.7992 89.6838 13.6234C89.223 13.4371 88.6935 13.3489 88.1052 13.3489H86.1443V21.7025H86.1345ZM106.244 24.0262H97.6452V11.0448H106.244V13.3685H100.361V16.3982H105.911V18.5454H100.361V21.7025H106.244V24.0262ZM112.284 24.0262H109.568V11.0448H115.019C115.735 11.0448 116.372 11.1428 116.941 11.3291C117.51 11.5252 117.99 11.7998 118.392 12.1527C118.784 12.5155 119.088 12.9469 119.304 13.4666C119.52 13.9764 119.627 14.5647 119.627 15.2118C119.627 15.6236 119.578 16.0256 119.471 16.408C119.273 17.1506 118.852 17.8146 118.265 18.3101C117.97 18.5552 117.637 18.7513 117.264 18.9082L120 24.036H116.921L114.5 19.3298H112.274V24.036L112.284 24.0262ZM112.284 17.2316H114.666C115.353 17.2316 115.892 17.0551 116.264 16.7119C116.647 16.3688 116.833 15.8785 116.833 15.2412C116.833 14.9373 116.784 14.6627 116.676 14.4078C116.568 14.1529 116.431 13.947 116.235 13.7705C116.049 13.594 115.813 13.4666 115.539 13.3685C115.264 13.2705 114.96 13.2312 114.627 13.2312H112.274V17.2316H112.284ZM34.3067 37.9489H9.26546L24.8648 14.2215L41.8368 41.7042H49.4256L24.7177 3.97559L0 41.7042H36.6206L34.3067 37.9489Z" fill="#262B2F"/>
<path d="M17.4961 33.5069H31.5659L24.7516 22.4766L17.4961 33.5069Z" fill="#15B3FC"/>
</g>
<defs>
<clipPath id="clip0_3503_4419">
<rect width="120" height="48" fill="white"/>
</clipPath>
</defs>
</svg>
