<svg width="32" height="32" viewBox="0 0 32 32" fill="none" xmlns="http://www.w3.org/2000/svg">
<path d="M19.5788 3.96203L20.8815 1.7906C21.0297 1.54331 20.9499 1.22297 20.7026 1.0748C20.4547 0.926103 20.1349 1.00593 19.9868 1.25375L18.612 3.54517C17.7934 3.25405 16.9169 3.08709 15.9997 3.08709C15.0825 3.08709 14.206 3.25405 13.3874 3.54517L12.0127 1.25375C11.8645 1.00593 11.5442 0.926625 11.2969 1.0748C11.0496 1.22297 10.9698 1.54331 11.1179 1.7906L12.4207 3.96203C9.90231 5.26374 8.17383 7.88802 8.17383 10.9135C8.17383 11.202 8.40756 11.4352 8.69555 11.4352H23.3039C23.5919 11.4352 23.8256 11.202 23.8256 10.9135C23.8251 7.88854 22.0971 5.26426 19.5788 3.96203ZM9.23711 10.3918C9.50423 6.89465 12.4353 4.13107 15.9997 4.13107C19.5642 4.13107 22.4952 6.89465 22.7623 10.3918H9.23711Z" fill="#18232B"/>
<path d="M19.6408 6.92871H18.9532C18.7633 6.92871 18.6094 7.08262 18.6094 7.27253V7.96016C18.6094 8.15007 18.7633 8.30398 18.9532 8.30398H19.6414C19.8313 8.30398 19.9852 8.15007 19.9852 7.96016V7.27253C19.9852 7.08262 19.8307 6.92871 19.6408 6.92871Z" fill="#18232B"/>
<path d="M13.0476 6.92871H12.3594C12.1695 6.92871 12.0156 7.08262 12.0156 7.27253V7.96016C12.0156 8.15007 12.1695 8.30398 12.3594 8.30398H13.0476C13.2375 8.30398 13.3914 8.15007 13.3914 7.96016V7.27253C13.3914 7.08262 13.2375 6.92871 13.0476 6.92871Z" fill="#18232B"/>
<path d="M23.3039 11.957H8.69555C8.40756 11.957 8.17383 12.1902 8.17383 12.4788V23.0025C8.17383 24.3919 9.30545 25.5219 10.6959 25.5219H11.3042V28.6554C11.3042 29.8043 12.2402 30.7392 13.3911 30.7392C14.542 30.7392 15.478 29.8043 15.478 28.6554V25.5219H16.5215V28.6554C16.5215 29.8043 17.4574 30.7392 18.6084 30.7392C19.7593 30.7392 20.6953 29.8043 20.6953 28.6554V25.5219H21.3036C22.6945 25.5219 23.8256 24.3919 23.8256 23.0025V12.4788C23.8256 12.1902 23.5924 11.957 23.3039 11.957ZM22.7822 23.0025C22.7822 23.8164 22.1191 24.4785 21.3036 24.4785H20.1735C19.8855 24.4785 19.6518 24.7117 19.6518 25.0002V28.6554C19.6518 29.2293 19.1838 29.6957 18.6084 29.6957C18.0329 29.6957 17.5649 29.2288 17.5649 28.6554V25.0002C17.5649 24.7117 17.3312 24.4785 17.0432 24.4785H14.9563C14.6683 24.4785 14.4345 24.7117 14.4345 25.0002V28.6554C14.4345 29.2293 13.9666 29.6957 13.3911 29.6957C12.8156 29.6957 12.3476 29.2288 12.3476 28.6554V25.0002C12.3476 24.7117 12.1139 24.4785 11.8259 24.4785H10.6964C9.88092 24.4785 9.21728 23.8159 9.21728 23.0025V13.0005H22.7822V23.0025Z" fill="#18232B"/>
<path d="M26.1737 11.957C25.1668 11.957 24.3477 12.7772 24.3477 13.7852V21.0852C24.3477 22.0931 25.1668 22.9133 26.1737 22.9133C27.1806 22.9133 27.9997 22.0931 27.9997 21.0852V13.7852C27.9997 12.7772 27.1806 11.957 26.1737 11.957ZM26.9563 21.0852C26.9563 21.5177 26.6052 21.8698 26.1737 21.8698C25.7422 21.8698 25.3911 21.5177 25.3911 21.0852V13.7852C25.3911 13.3526 25.7422 13.0005 26.1737 13.0005C26.6052 13.0005 26.9563 13.3526 26.9563 13.7852V21.0852Z" fill="#18232B"/>
<path d="M5.82604 11.957C4.81911 11.957 4 12.7772 4 13.7852V21.0852C4 22.0931 4.81911 22.9133 5.82604 22.9133C6.83298 22.9133 7.65209 22.0931 7.65209 21.0852V13.7852C7.65209 12.7772 6.83298 11.957 5.82604 11.957ZM6.60863 21.0852C6.60863 21.5177 6.25751 21.8698 5.82604 21.8698C5.39457 21.8698 5.04345 21.5177 5.04345 21.0852V13.7852C5.04345 13.3526 5.39457 13.0005 5.82604 13.0005C6.25751 13.0005 6.60863 13.3526 6.60863 13.7852V21.0852Z" fill="#18232B"/>
</svg>
